<svg width="40" height="56" viewBox="0 0 40 56" fill="none" xmlns="http://www.w3.org/2000/svg">
<path d="M3.54552 29.5L20 0.999999L36.4545 29.5H3.54552Z" stroke="white"/>
<path d="M31.5 21L36.2631 29.25H26.7369L31.5 21Z" fill="white"/>
<path d="M9.07888 45.928C9.36688 45.9707 9.64954 46.0347 9.92688 46.12C10.2149 46.1947 10.4709 46.2853 10.6949 46.392V47H5.36688V46.392C5.56954 46.2747 5.78288 46.1787 6.00688 46.104C6.24154 46.0293 6.46554 45.9707 6.67888 45.928V36.872C6.43354 36.8293 6.19888 36.7707 5.97488 36.696C5.75088 36.6107 5.54821 36.5147 5.36688 36.408V35.8H7.38288C7.80954 35.8 8.29488 35.7787 8.83888 35.736C9.39354 35.6933 9.90021 35.672 10.3589 35.672C10.9242 35.672 11.4735 35.7307 12.0069 35.848C12.5509 35.9547 13.0309 36.1413 13.4469 36.408C13.8735 36.6747 14.2149 37.032 14.4709 37.48C14.7269 37.9173 14.8549 38.4667 14.8549 39.128C14.8549 39.7573 14.7269 40.3013 14.4709 40.76C14.2255 41.2187 13.8949 41.5973 13.4789 41.896C13.0629 42.1947 12.5829 42.4187 12.0389 42.568C11.4949 42.7067 10.9349 42.776 10.3589 42.776C10.3055 42.776 10.2202 42.776 10.1029 42.776C9.98554 42.776 9.85754 42.776 9.71888 42.776C9.59088 42.7653 9.46288 42.76 9.33488 42.76C9.21754 42.7493 9.13221 42.7387 9.07888 42.728V45.928ZM9.94288 36.712C9.72954 36.712 9.55888 36.7227 9.43088 36.744C9.31354 36.7547 9.19621 36.776 9.07888 36.808V41.672C9.17488 41.704 9.31888 41.7253 9.51088 41.736C9.70288 41.736 9.85754 41.736 9.97488 41.736C10.2629 41.736 10.5402 41.688 10.8069 41.592C11.0735 41.496 11.3082 41.3467 11.5109 41.144C11.7242 40.9413 11.8949 40.68 12.0229 40.36C12.1509 40.04 12.2149 39.656 12.2149 39.208C12.2149 38.3547 12.0069 37.7253 11.5909 37.32C11.1749 36.9147 10.6255 36.712 9.94288 36.712ZM20.1933 47H15.7773V46.376C16.1293 46.2053 16.4813 46.0773 16.8333 45.992V36.296L15.6173 36.168V35.544C15.7559 35.48 15.9479 35.416 16.1933 35.352C16.4386 35.288 16.6999 35.2347 16.9773 35.192C17.2653 35.1387 17.5479 35.096 17.8253 35.064C18.1133 35.0213 18.3693 34.9893 18.5933 34.968H19.1373V45.992C19.4893 46.0773 19.8413 46.2053 20.1933 46.376V47ZM28.1138 44.68C28.1138 44.9147 28.1138 45.1173 28.1138 45.288C28.1244 45.4587 28.1404 45.64 28.1618 45.832L29.2658 45.992V46.552C29.1378 46.616 28.9618 46.68 28.7378 46.744C28.5244 46.808 28.2951 46.872 28.0498 46.936C27.8151 46.9893 27.5804 47.032 27.3458 47.064C27.1111 47.1067 26.9031 47.1387 26.7218 47.16H26.1778C26.0711 46.9147 26.0071 46.6693 25.9858 46.424C25.9644 46.1787 25.9484 45.88 25.9378 45.528H25.8578C25.8044 45.7413 25.7138 45.9493 25.5858 46.152C25.4578 46.344 25.2924 46.52 25.0898 46.68C24.8978 46.8293 24.6684 46.952 24.4018 47.048C24.1351 47.144 23.8364 47.192 23.5058 47.192C23.1538 47.192 22.8284 47.1387 22.5298 47.032C22.2311 46.9253 21.9698 46.776 21.7458 46.584C21.5218 46.392 21.3458 46.1627 21.2178 45.896C21.0898 45.6187 21.0258 45.3093 21.0258 44.968C21.0258 44.488 21.1164 44.0933 21.2978 43.784C21.4791 43.4747 21.7618 43.224 22.1458 43.032C22.5404 42.8293 23.0418 42.68 23.6498 42.584C24.2684 42.488 25.0151 42.4187 25.8898 42.376C25.9751 41.4587 25.9378 40.7867 25.7778 40.36C25.6178 39.9333 25.2711 39.72 24.7378 39.72C24.4071 39.72 24.1031 39.7733 23.8258 39.88L23.0738 41.8H22.3698C22.2844 41.672 22.1991 41.528 22.1138 41.368C22.0391 41.1973 21.9644 41.0213 21.8898 40.84C21.8258 40.648 21.7671 40.456 21.7138 40.264C21.6711 40.072 21.6391 39.8853 21.6178 39.704C22.0231 39.4267 22.5458 39.208 23.1858 39.048C23.8258 38.888 24.5031 38.808 25.2178 38.808C25.8258 38.808 26.3218 38.8773 26.7058 39.016C27.0898 39.144 27.3884 39.3253 27.6018 39.56C27.8258 39.784 27.9804 40.0507 28.0658 40.36C28.1511 40.6693 28.1938 41 28.1938 41.352C28.1938 41.992 28.1778 42.5733 28.1458 43.096C28.1244 43.608 28.1138 44.136 28.1138 44.68ZM24.5138 45.912C24.7378 45.912 24.9298 45.8693 25.0898 45.784C25.2498 45.6987 25.3831 45.5973 25.4898 45.48C25.6071 45.3627 25.6924 45.2347 25.7458 45.096C25.8098 44.9573 25.8578 44.8347 25.8898 44.728V43.128C25.3884 43.1387 24.9778 43.1707 24.6578 43.224C24.3378 43.2773 24.0871 43.368 23.9058 43.496C23.7244 43.6133 23.5964 43.768 23.5218 43.96C23.4578 44.1413 23.4258 44.3653 23.4258 44.632C23.4258 45.0373 23.5218 45.352 23.7138 45.576C23.9058 45.8 24.1724 45.912 24.5138 45.912ZM30.108 40.008C29.948 39.9653 29.7987 39.912 29.66 39.848C29.532 39.784 29.3987 39.7093 29.26 39.624V39H33.468V39.608C33.244 39.7573 32.94 39.8907 32.556 40.008L34.172 44.024L34.444 45.048H34.476L34.732 44.008L35.98 40.008C35.66 39.944 35.3667 39.816 35.1 39.624V39H38.188V39.624C37.964 39.7733 37.66 39.9013 37.276 40.008L34.668 47C34.412 47.6827 34.156 48.2373 33.9 48.664C33.644 49.1013 33.388 49.448 33.132 49.704C32.876 49.96 32.62 50.136 32.364 50.232C32.108 50.3387 31.852 50.408 31.596 50.44C31.4893 50.344 31.3933 50.2213 31.308 50.072C31.2227 49.9333 31.148 49.7787 31.084 49.608C31.02 49.448 30.9667 49.2827 30.924 49.112C30.8813 48.9413 30.8547 48.7813 30.844 48.632L31.052 48.248H33.004C33.1 48.0987 33.18 47.9387 33.244 47.768C33.3187 47.5973 33.404 47.3413 33.5 47L30.108 40.008Z" fill="white"/>
</svg>
