<svg width="47" height="35" viewBox="0 0 47 35" fill="none" xmlns="http://www.w3.org/2000/svg">
<path d="M46.58 4.98C43.084 6.08399 40.278 7.73999 38.162 9.948C36.138 12.156 35.356 15.008 35.816 18.504C36.828 19.332 38.254 20.206 40.094 21.126C41.934 21.954 43.544 22.598 44.924 23.058C45.292 24.53 45.292 25.956 44.924 27.336C44.556 28.716 43.958 29.958 43.13 31.062C42.302 32.074 41.336 32.948 40.232 33.684C39.128 34.328 38.116 34.696 37.196 34.788C33.976 34.512 31.17 33.316 28.778 31.2C26.386 29.084 25.19 26.048 25.19 22.092C25.19 19.792 25.558 17.492 26.294 15.192C27.122 12.892 28.318 10.776 29.882 8.844C31.446 6.82 33.424 5.072 35.816 3.6C38.208 2.036 41.06 0.931994 44.372 0.287992L46.58 4.98ZM21.464 4.98C17.968 6.08399 15.162 7.73999 13.046 9.948C11.022 12.156 10.24 15.008 10.7 18.504C11.712 19.332 13.138 20.206 14.978 21.126C16.818 21.954 18.428 22.598 19.808 23.058C20.176 24.53 20.176 25.956 19.808 27.336C19.44 28.716 18.842 29.958 18.014 31.062C17.186 32.074 16.22 32.948 15.116 33.684C14.012 34.328 13 34.696 12.08 34.788C8.86 34.512 6.054 33.316 3.662 31.2C1.27 29.084 0.0740009 26.048 0.0740009 22.092C0.0740009 19.792 0.442001 17.492 1.178 15.192C2.006 12.892 3.202 10.776 4.766 8.844C6.33 6.82 8.308 5.072 10.7 3.6C13.092 2.036 15.944 0.931994 19.256 0.287992L21.464 4.98Z" fill="black"/>
</svg>
