<svg width="25" height="33" viewBox="0 0 25 33" fill="none" xmlns="http://www.w3.org/2000/svg">
<path d="M21.3003 13.3081V9.30811C21.3003 4.33711 17.2713 0.308105 12.3003 0.308105C7.32929 0.308105 3.30029 4.33711 3.30029 9.30811V13.3081C1.64329 13.3081 0.300293 14.6511 0.300293 16.3081V19.3081V20.3081V22.3081V23.3081C0.300293 28.2791 4.32929 32.3081 9.30029 32.3081H15.3003C20.2713 32.3081 24.3003 28.2791 24.3003 23.3081V22.3081V20.3081V19.3081V16.3081C24.3003 14.6501 22.9563 13.3081 21.3003 13.3081ZM5.30029 9.30811C5.30029 5.44211 8.43429 2.30811 12.3003 2.30811C16.1663 2.30811 19.3003 5.44211 19.3003 9.30811V13.3081H17.3003V9.31011C17.3003 6.54811 15.0623 4.31011 12.3003 4.31011C9.53829 4.31011 7.30029 6.54811 7.30029 9.31011V13.3081H5.30029V9.30811ZM16.3003 9.30811V9.31111V13.3081H8.30029V9.31011V9.30811C8.30029 7.09911 10.0913 5.30811 12.3003 5.30811C14.5093 5.30811 16.3003 7.09911 16.3003 9.30811ZM22.3003 19.3081V20.3081V22.3081V23.3081C22.3003 27.1671 19.1593 30.3081 15.3003 30.3081H9.30029C5.44129 30.3081 2.30029 27.1671 2.30029 23.3081V22.3081V20.3081V19.3081V16.3081C2.30029 15.7561 2.74829 15.3081 3.30029 15.3081C3.96729 15.3081 4.63329 15.3081 5.30029 15.3081H19.3003C19.9663 15.3081 20.6323 15.3081 21.3003 15.3081C21.8513 15.3081 22.3003 15.7561 22.3003 16.3081V19.3081Z" fill="#83C2E7"/>
<path d="M12.3003 19.3081C11.1963 19.3081 10.3003 20.2031 10.3003 21.3081C10.3003 21.9151 10.6333 23.0681 10.9673 23.9801C11.2393 24.7221 11.5813 25.3061 12.3003 25.3061C13.0823 25.3061 13.3613 24.7281 13.6343 23.9901C13.9723 23.0761 14.3003 21.9171 14.3003 21.3081C14.3003 20.2031 13.4043 19.3081 12.3003 19.3081Z" fill="#83C2E7"/>
</svg>
