<svg width="25" height="33" viewBox="0 0 25 33" fill="none" xmlns="http://www.w3.org/2000/svg">
<path d="M21.8684 13.3071V9.30713C21.8684 4.33613 17.8394 0.307129 12.8684 0.307129C7.89741 0.307129 3.86841 4.33613 3.86841 9.30713V13.3071C2.21141 13.3071 0.868408 14.6501 0.868408 16.3071V19.3071V20.3071V22.3071V23.3071C0.868408 28.2781 4.89741 32.3071 9.86841 32.3071H15.8684C20.8394 32.3071 24.8684 28.2781 24.8684 23.3071V22.3071V20.3071V19.3071V16.3071C24.8684 14.6491 23.5244 13.3071 21.8684 13.3071ZM5.86841 9.30713C5.86841 5.44113 9.00241 2.30713 12.8684 2.30713C16.7344 2.30713 19.8684 5.44113 19.8684 9.30713V13.3071H17.8684V9.30913C17.8684 6.54713 15.6304 4.30913 12.8684 4.30913C10.1064 4.30913 7.86841 6.54713 7.86841 9.30913V13.3071H5.86841V9.30713ZM16.8684 9.30713V9.31013V13.3071H8.86841V9.30913V9.30713C8.86841 7.09813 10.6594 5.30713 12.8684 5.30713C15.0774 5.30713 16.8684 7.09813 16.8684 9.30713ZM22.8684 19.3071V20.3071V22.3071V23.3071C22.8684 27.1661 19.7274 30.3071 15.8684 30.3071H9.86841C6.00941 30.3071 2.86841 27.1661 2.86841 23.3071V22.3071V20.3071V19.3071V16.3071C2.86841 15.7551 3.31641 15.3071 3.86841 15.3071C4.53541 15.3071 5.20141 15.3071 5.86841 15.3071H19.8684C20.5344 15.3071 21.2004 15.3071 21.8684 15.3071C22.4194 15.3071 22.8684 15.7551 22.8684 16.3071V19.3071Z" fill="#3971AC"/>
<path d="M12.8684 19.3071C11.7644 19.3071 10.8684 20.2021 10.8684 21.3071C10.8684 21.9141 11.2014 23.0671 11.5354 23.9791C11.8074 24.7211 12.1494 25.3051 12.8684 25.3051C13.6504 25.3051 13.9294 24.7271 14.2024 23.9891C14.5404 23.0751 14.8684 21.9161 14.8684 21.3071C14.8684 20.2021 13.9724 19.3071 12.8684 19.3071Z" fill="#3971AC"/>
</svg>
