<svg width="28" height="28" viewBox="0 0 28 28" fill="none" xmlns="http://www.w3.org/2000/svg">
<path d="M20.6014 17.7045L19.2871 16.081C19.1583 15.9006 19.081 15.6944 19.081 15.4625V12.1124C19.081 10.0251 17.6894 8.16968 15.6794 7.60274V6.28849C15.6794 5.56693 15.0867 5 14.3909 5C13.6951 5 13.1024 5.5927 13.1024 6.28849V7.57697C11.0666 8.16968 9.67503 10.0251 9.7008 12.1124V15.4625C9.7008 15.6944 9.62349 15.9006 9.49465 16.081L8.18039 17.7045C8.07731 17.8333 8 18.0137 8 18.1941V20.2299H20.8333V18.1941C20.7818 18.0137 20.7045 17.8333 20.6014 17.7045ZM13.8497 6.28849C13.8497 6.00502 14.0817 5.77309 14.3651 5.77309C14.6486 5.77309 14.8805 6.00502 14.8805 6.28849V7.44813C14.5197 7.39659 14.1847 7.39659 13.824 7.44813V6.28849H13.8497ZM20.0087 19.4311H8.72155V18.1941L10.0358 16.5706C10.2935 16.2614 10.4224 15.8748 10.4224 15.4625V12.1124C10.4224 9.94779 12.1747 8.16968 14.3651 8.16968C16.5556 8.16968 18.3079 9.92202 18.3079 12.1124V15.4625C18.3079 15.8748 18.4367 16.2614 18.6944 16.5706L20.0087 18.1941V19.4311Z" fill="white"/>
<path d="M13.8497 9.0459V9.81899C15.4217 9.81899 16.7102 11.1075 16.7102 12.6794H17.4833C17.4833 10.6694 15.8598 9.0459 13.8497 9.0459Z" fill="white"/>
<path d="M14.365 21.6989C13.6176 21.6989 13.0249 21.1062 13.0249 20.3589H12.2518C12.2518 21.5185 13.2053 22.472 14.365 22.472C15.5246 22.472 16.4781 21.5185 16.4781 20.3589H15.705C15.705 21.1062 15.1123 21.6989 14.365 21.6989Z" fill="white"/>
<circle cx="14" cy="14" r="13.5" stroke="white" stroke-opacity="0.4"/>
</svg>
