<svg width="200" height="200" viewBox="0 0 200 200" fill="none" xmlns="http://www.w3.org/2000/svg">
<path d="M46.5389 23.15C84.9667 23.15 111.356 3.24445 129.872 3.24445C148.389 3.24445 187.278 13.8889 187.278 99.0722C187.278 184.256 134.961 196.756 114.594 196.756C19.2222 196.761 -21.5167 23.15 46.5389 23.15V23.15Z" fill="#EFEFEF"/>
<path d="M13.8889 77.7778C9.29443 77.7778 5.55554 74.0389 5.55554 69.4444C5.55554 64.85 9.29443 61.1111 13.8889 61.1111C18.4833 61.1111 22.2222 64.85 22.2222 69.4444C22.2222 74.0389 18.4833 77.7778 13.8889 77.7778ZM13.8889 66.6666C12.3555 66.6666 11.1111 67.9166 11.1111 69.4444C11.1111 70.9722 12.3555 72.2222 13.8889 72.2222C15.4222 72.2222 16.6667 70.9722 16.6667 69.4444C16.6667 67.9166 15.4222 66.6666 13.8889 66.6666Z" fill="#A4AFC1"/>
<path d="M151.389 151.389H48.6111C42.4722 151.389 37.5 146.417 37.5 140.278V56.9445H162.5V140.278C162.5 146.417 157.528 151.389 151.389 151.389Z" fill="#F3F3F1"/>
<path d="M162.5 56.9444H37.5V48.6111C37.5 42.4722 42.4722 37.5 48.6111 37.5H151.389C157.528 37.5 162.5 42.4722 162.5 48.6111V56.9444Z" fill="#7A7A7A"/>
<path d="M51.3889 140.278V56.9445H37.5V140.278C37.5 146.417 42.4722 151.389 48.6111 151.389H62.5C56.3611 151.389 51.3889 146.417 51.3889 140.278Z" fill="#D5DBE1"/>
<path d="M61.1111 37.5H48.6111C42.4722 37.5 37.5 42.4722 37.5 48.6111V56.9444H50V48.6111C50 42.4722 54.9722 37.5 61.1111 37.5Z" fill="#2E2E2E"/>
<path d="M166.667 118.056H158.333V48.6111C158.333 44.7833 155.217 41.6666 151.389 41.6666H48.6111C44.7833 41.6666 41.6667 44.7833 41.6667 48.6111V118.056H33.3333V48.6111C33.3333 40.1833 40.1833 33.3333 48.6111 33.3333H151.389C159.817 33.3333 166.667 40.1833 166.667 48.6111V118.056Z" fill="black"/>
<path d="M79.1667 122.222C77.6778 122.222 76.2722 121.422 75.5222 120.078L69.4444 109.133V122.222H61.1111V93.0556C61.1111 91.1556 62.3944 89.4945 64.2333 89.0222C66.0667 88.5333 68 89.3667 68.9222 91.0278L75 101.972V88.8889H83.3333V118.056C83.3333 119.956 82.05 121.617 80.2111 122.089C79.8611 122.178 79.5111 122.222 79.1667 122.222V122.222Z" fill="black"/>
<path d="M101.389 122.222H98.6111C93.25 122.222 88.8889 117.861 88.8889 112.5V98.6111C88.8889 93.25 93.25 88.8889 98.6111 88.8889H101.389C106.75 88.8889 111.111 93.25 111.111 98.6111V112.5C111.111 117.861 106.75 122.222 101.389 122.222ZM98.6111 97.2222C97.8444 97.2222 97.2222 97.8445 97.2222 98.6111V112.5C97.2222 113.267 97.8444 113.889 98.6111 113.889H101.389C102.156 113.889 102.778 113.267 102.778 112.5V98.6111C102.778 97.8445 102.156 97.2222 101.389 97.2222H98.6111Z" fill="black"/>
<path d="M123.611 88.8889H131.944V122.222H123.611V88.8889Z" fill="black"/>
<path d="M116.667 88.8889H138.889V97.2223H116.667V88.8889Z" fill="black"/>
<path d="M156.944 166.667H148.611C146.311 166.667 144.444 164.8 144.444 162.5V137.5C144.444 135.2 146.311 133.333 148.611 133.333H156.944C162.306 133.333 166.667 137.694 166.667 143.056V156.944C166.667 162.306 162.306 166.667 156.944 166.667ZM152.778 158.333H156.944C157.711 158.333 158.333 157.711 158.333 156.944V143.056C158.333 142.289 157.711 141.667 156.944 141.667H152.778V158.333Z" fill="black"/>
<path d="M41.6667 166.667H33.3333V143.056C33.3333 137.694 37.6945 133.333 43.0556 133.333H55.5556V141.667H43.0556C42.2889 141.667 41.6667 142.289 41.6667 143.056V166.667Z" fill="black"/>
<path d="M33.3333 147.222H55.5556V155.556H33.3333V147.222Z" fill="black"/>
<path d="M134.722 166.667C133.233 166.667 131.828 165.867 131.078 164.522L125 153.578V166.667H116.667V137.5C116.667 135.6 117.95 133.939 119.789 133.467C121.622 132.978 123.556 133.811 124.478 135.472L130.556 146.417V133.333H138.889V162.5C138.889 164.4 137.606 166.061 135.767 166.533C135.417 166.622 135.067 166.667 134.722 166.667V166.667Z" fill="black"/>
<path d="M73.6111 166.667H70.8333C65.4722 166.667 61.1111 162.306 61.1111 156.944V143.056C61.1111 137.694 65.4722 133.333 70.8333 133.333H73.6111C78.9722 133.333 83.3333 137.694 83.3333 143.056V156.944C83.3333 162.306 78.9722 166.667 73.6111 166.667ZM70.8333 141.667C70.0667 141.667 69.4444 142.289 69.4444 143.056V156.944C69.4444 157.711 70.0667 158.333 70.8333 158.333H73.6111C74.3778 158.333 75 157.711 75 156.944V143.056C75 142.289 74.3778 141.667 73.6111 141.667H70.8333Z" fill="black"/>
<path d="M101.389 166.667H98.6111C93.25 166.667 88.8889 162.306 88.8889 156.944V133.333H97.2222V156.944C97.2222 157.711 97.8444 158.333 98.6111 158.333H101.389C102.156 158.333 102.778 157.711 102.778 156.944V133.333H111.111V156.944C111.111 162.306 106.75 166.667 101.389 166.667Z" fill="black"/>
<path d="M37.5 52.7778H162.5V61.1111H37.5V52.7778Z" fill="black"/>
</svg>
