<svg width="260" height="57" fill="none" xmlns="http://www.w3.org/2000/svg"><path stroke="#C9AB82" d="M244.646 42.638l-14.849-14.849M231.354 56.638l28.284-28.284M259.646 28.638L231.362.354M230.354 28.638l14.849-14.85M230.646 56.638l-28.284-28.284M202.354 56.638l28.284-28.284M230.646 28.638L202.362.354M202.354 28.638L230.638.354M201.646 56.638l-28.284-28.284M173.354 56.638l28.284-28.284M172.646 56.638l-28.284-28.284M144.354 56.638l28.284-28.284M143.646 56.638l-28.284-28.284M130.354 42.638l14.142-14.142M201.646 28.638L173.362.354M173.354 28.638L201.638.354M172.646 28.638L144.362.354M144.354 28.638L172.638.354M144.646 28.638l-14.849-14.849M115.354 28.638L143.638.354M129.646 42.638l-14.849-14.849M116.354 56.638l28.284-28.284M144.646 28.638L116.362.354M115.354 28.638l14.849-14.85M115.646 56.638L87.362 28.354M87.354 56.638l28.284-28.284M115.646 28.638L87.362.354M87.354 28.638L115.638.354M86.646 56.638L58.362 28.354M58.354 56.638l28.284-28.284M57.646 56.638L29.362 28.354M29.354 56.638l28.284-28.284M28.646 56.638L.362 28.354M15.354 42.638l14.142-14.142M86.646 28.638L58.362.354M58.354 28.638L86.638.354M57.646 28.638L29.362.354M29.354 28.638L57.638.354M29.646 28.638L14.797 13.789M.354 28.638L28.638.354"/></svg>