<svg width="32" height="32" fill="none" xmlns="http://www.w3.org/2000/svg"><g clip-path="url(#clip0)" fill="#EA907A"><path d="M5.798 20.037c1.297 0 2.352-1.416 2.352-3.156 0-1.741-1.055-3.157-2.352-3.157s-2.351 1.416-2.351 3.157c0 1.74 1.054 3.156 2.351 3.156zM11.405 20.037c1.295 0 2.351-1.416 2.351-3.156 0-1.741-1.056-3.157-2.351-3.157-1.298 0-2.353 1.416-2.353 3.157 0 1.74 1.055 3.156 2.353 3.156zM15.795 18.463c-1.02-.201-2.027.698-2.293 2.05-.265 1.35.325 2.564 1.345 2.765 1.019.2 2.026-.7 2.292-2.05.266-1.35-.325-2.565-1.344-2.765zM3.7 20.513c-.266-1.352-1.272-2.251-2.292-2.05-1.019.2-1.61 1.414-1.344 2.766.265 1.35 1.273 2.25 2.292 2.049 1.02-.201 1.61-1.415 1.344-2.765zM12.151 23.986a3.602 3.602 0 00-3.55-3.02 3.602 3.602 0 00-3.55 3.02 3.601 3.601 0 00-2.163 3.298 3.6 3.6 0 003.596 3.597c.791 0 1.523-.257 2.117-.691a3.576 3.576 0 002.117.691 3.6 3.6 0 003.597-3.597 3.602 3.602 0 00-2.164-3.298zM20.596 7.432c1.297 0 2.352-1.416 2.352-3.157 0-1.74-1.055-3.156-2.352-3.156s-2.352 1.416-2.352 3.156c0 1.741 1.055 3.157 2.352 3.157zM26.202 7.432c1.295 0 2.351-1.416 2.351-3.157 0-1.74-1.055-3.156-2.351-3.156-1.297 0-2.352 1.416-2.352 3.156 0 1.741 1.055 3.157 2.352 3.157zM30.592 5.857c-1.02-.2-2.026.7-2.292 2.05-.266 1.35.324 2.565 1.344 2.765 1.02.2 2.027-.699 2.292-2.049.267-1.35-.325-2.565-1.344-2.766zM17.153 10.672c1.02-.2 1.61-1.415 1.345-2.764-.266-1.352-1.273-2.251-2.293-2.05-1.019.2-1.61 1.414-1.344 2.766.266 1.35 1.273 2.25 2.292 2.048zM26.949 11.381a3.602 3.602 0 00-3.55-3.02 3.602 3.602 0 00-3.55 3.02 3.601 3.601 0 00-2.164 3.298 3.6 3.6 0 003.597 3.597c.79 0 1.523-.257 2.117-.692a3.577 3.577 0 002.117.692 3.6 3.6 0 003.597-3.597 3.602 3.602 0 00-2.164-3.298z"/></g><defs><clipPath id="clip0"><path fill="#fff" d="M0 0h32v32H0z"/></clipPath></defs></svg>