<svg width="32" height="32" fill="none" xmlns="http://www.w3.org/2000/svg"><path d="M22 1H10a.5.5 0 00-.5.5v2.9l-2.962 6.915a.943.943 0 00-.038.185v17c0 1.613.888 2.5 2.5 2.5h11c.133 0 .26-.053.354-.147l4-4c.537-.537 1.146-1.146 1.146-2.853V6.5a.496.496 0 00-.226-.412L22.5 4.232V1.5A.5.5 0 0022 1zM10.5 2h11v2h-11V2zm9 28H9c-1.05 0-1.5-.45-1.5-1.5V12h12v18zm.123-19H7.758l2.571-6h11.008l-1.714 6zM24.5 24c0 1.293-.377 1.67-.854 2.146L20.5 29.293V11.707l4-4V24zm-.285-17.422l-3.204 3.204 1.282-4.486 1.922 1.281z" fill="#fff"/><path d="M19 7h-8a.5.5 0 000 1h8a.5.5 0 000-1zM9 15a.5.5 0 00.353-.146l1-1a.5.5 0 00-.707-.707l-1 1A.5.5 0 009 15zM12 15a.5.5 0 00.353-.146l1-1a.5.5 0 00-.707-.707l-1 1A.5.5 0 0012 15zM9 24.5a.5.5 0 00.353-.146l9-9a.5.5 0 00-.707-.707l-9 9A.5.5 0 009 24.5zM17.646 17.646l-6 6a.5.5 0 10.707.707l6-6a.5.5 0 00-.707-.707z" fill="#fff"/></svg>