<svg width="400" height="440" fill="none" xmlns="http://www.w3.org/2000/svg"><rect x="1.5" y="1.5" width="397" height="437" rx="28.5" fill="#fff" stroke="#AACDBE" stroke-width="3" stroke-dasharray="10 8"/><g opacity=".35" clip-path="url(#clip0)"><path d="M338.468 397.469c-5.956 8.492-18.446 9.092-26.002 1.989-2.249-2.113-5.146-4.17-8.488-5.917-3.287-1.717-6.571-2.909-9.55-3.556-10.785-2.342-17.704-14.164-12.293-24.52a16.162 16.162 0 0110.377-8.201s8.942-2.137 18.883-10.15c4.874-4.067 11.906-5.044 17.882-1.921 5.978 3.123 9.193 9.452 8.638 15.776-.721 10.193 1.28 17.707 2.108 20.306 2.328 5.093 1.977 11.149-1.555 16.194zM301.545 330.192c-.037 8.016-4.884 14.494-10.827 14.466-5.942-.027-10.73-6.549-10.694-14.566.038-8.016 4.885-14.493 10.827-14.466 5.943.026 10.731 6.548 10.694 14.566zM364.37 318.833c4.659 3.182 4.583 11.748-.17 18.707-4.415 6.46-12.513 10.347-17.364 6.957-4.66-3.179-4.581-11.747.172-18.706 4.327-6.335 12.437-10.399 17.362-6.958zM335.081 319.511c-1.536 4.042-4.203 7.498-7.313 9.49-2.687 1.72-5.889 2.466-8.676 1.009-4.731-2.471-6.288-10.503-3.47-17.899 1.536-4.036 4.203-7.497 7.313-9.489 2.655-1.7 5.856-2.478 8.672-1.007 4.731 2.472 6.291 10.501 3.474 17.896zM375.433 359.829c3.415 4.864.865 12.542-5.693 17.15-6.561 4.608-14.649 4.402-18.065-.46-3.415-4.863-.866-12.54 5.692-17.149 6.562-4.609 14.65-4.404 18.066.459z" fill="#fff"/><path d="M328.49 365.252a2.143 2.143 0 101.984-3.799 2.143 2.143 0 00-1.984 3.799z" fill="#AACDBE"/><path d="M310.084 345.482c-9.394 7.567-17.941 9.704-18.023 9.723l-.029.008a18.37 18.37 0 00-11.748 9.284c-2.949 5.645-2.826 11.957.211 17.504a20.333 20.333 0 0013.525 10.103c2.889.628 6.006 1.79 9.013 3.361 3.058 1.598 5.829 3.527 8.013 5.58a20.199 20.199 0 0015.91 5.37c6.344-.652 11.668-4.178 14.646-9.878 2.619-5.013 2.79-10.839.473-16.005-.851-2.709-2.652-9.78-1.977-19.37a18.291 18.291 0 00-9.781-17.843 18.291 18.291 0 00-20.233 2.163zm25.744 15.325l-.003.036c-.741 10.479 1.294 18.252 2.204 21.107.026.082.057.162.092.24 1.822 3.985 1.706 8.491-.317 12.363-2.309 4.418-6.4 7.097-11.286 7.599a15.919 15.919 0 01-12.538-4.23c-2.465-2.316-5.564-4.479-8.963-6.255-3.341-1.746-6.829-3.043-10.087-3.751a16.048 16.048 0 01-10.677-7.973c-2.332-4.259-2.461-9.079-.172-13.461a14.081 14.081 0 018.994-7.113c.591-.144 9.637-2.441 19.711-10.562l.028-.023a14.02 14.02 0 0115.518-1.667 14.02 14.02 0 017.496 13.69z" fill="#AACDBE"/><path d="M327.431 372.127c.572 5.947 1.768 10.333 2.43 12.419a2.143 2.143 0 004.085-1.297c-.611-1.923-1.715-5.979-2.249-11.531a2.143 2.143 0 10-4.266.409zM331.688 299.308c-3.018-1.149-6.52-.604-9.861 1.534-3.489 2.234-6.463 6.073-8.16 10.531-5.396 14.163 3.799 26.82 15.304 19.456 3.491-2.236 6.466-6.074 8.16-10.53 3.304-8.672 1.246-18.459-5.443-20.991zm-5.027 27.913c-8.372 5.359-12.533-5.021-8.989-14.322 1.377-3.619 3.734-6.698 6.465-8.447 1.989-1.273 4.435-2.005 6.526-.913 3.737 1.953 4.866 8.929 2.463 15.236-1.375 3.617-3.732 6.695-6.465 8.446zM300.215 318.669c-2.432-3.313-5.737-5.145-9.307-5.161-3.57-.016-6.891 1.786-9.352 5.076-2.319 3.097-3.606 7.189-3.627 11.523-.019 4.334 1.231 8.438 3.521 11.557 2.272 3.095 5.511 5.144 9.306 5.161 3.569.017 6.891-1.786 9.353-5.075 2.318-3.098 3.606-7.19 3.626-11.523.02-4.335-1.23-8.439-3.52-11.558zm-3.537 20.513c-1.628 2.176-3.724 3.368-5.902 3.358-2.179-.009-4.263-1.221-5.872-3.412-1.75-2.384-2.705-5.581-2.69-9.002.016-3.42 1.001-6.608 2.772-8.975 1.628-2.175 3.724-3.367 5.902-3.357h.001c2.409.01 4.444 1.466 5.872 3.411 1.749 2.383 2.704 5.58 2.689 9.002-.016 3.421-1.001 6.608-2.772 8.975zM364.725 316.548c-5.758-3.008-14.297.532-19.439 8.06-5.487 8.035-5.538 18.656 1.29 22.224 5.757 3.008 14.296-.531 19.441-8.059 5.478-8.019 5.549-18.65-1.292-22.225zm-2.246 19.808c-3.946 5.772-10.782 8.919-14.368 6.41l-.02-.014c-1.62-1.105-2.535-3.345-2.509-6.146.029-3.114 1.211-6.606 3.243-9.581 3.806-5.573 10.179-8.631 13.916-6.679.176.092.323.18.449.268 1.908 1.283 2.551 3.872 2.53 6.162-.028 3.113-1.21 6.605-3.241 9.58zM348.795 367.199c-2.695 8.119 2.277 15.053 10.726 15.268 8.002.204 16.364-5.668 18.886-13.267 2.664-8.024-2.175-15.053-10.725-15.269-8-.204-16.364 5.669-18.887 13.268zm18.778-8.985c5.614.143 8.539 4.299 6.768 9.636-1.922 5.79-8.574 10.489-14.711 10.333-2.716-.069-4.902-1.089-6.154-2.871-1.252-1.782-1.47-4.184-.614-6.763 1.926-5.8 8.585-10.49 14.711-10.335z" fill="#AACDBE"/></g><defs><clipPath id="clip0"><path fill="#fff" transform="rotate(27.588 -416.4 754.744)" d="M0 0h109.703v109.703H0z"/></clipPath></defs></svg>