<svg width="102" height="40" fill="none" xmlns="http://www.w3.org/2000/svg"><path stroke="#C9AB82" d="M11.698 10.302l10.241 10.241M20.646.646L1.14 20.153M1.354 19.957L20.86 39.463M21.336 19.957l-10.24 10.24M21.354.646L40.86 20.153M40.646.646L21.14 20.153M21.354 19.957L40.86 39.463M40.646 19.957L21.14 39.463M41.354.646L60.86 20.153M60.646.646L41.14 20.153M61.354.646L80.86 20.153M80.646.646L61.14 20.153M81.354.646l19.506 19.507M90.302 10.302l-9.753 9.753M41.354 19.957L60.86 39.463M60.646 19.957L41.14 39.463M61.354 19.957L80.86 39.463M80.646 19.957L61.14 39.463M80.664 19.957l10.241 10.241M100.646 19.957L81.14 39.463"/></svg>