<svg width="58" height="260" fill="none" xmlns="http://www.w3.org/2000/svg"><path stroke="#C9AB82" d="M14.646 244.646l14.85-14.849M.646 231.354l28.285 28.284M28.646 259.646l28.285-28.284M28.646 230.354l14.85 14.849M.646 230.646l28.285-28.284M.646 202.354l28.285 28.284M28.646 230.646l28.285-28.284M28.646 202.354l28.285 28.284M.646 201.646l28.285-28.284M.646 173.354l28.285 28.284M.646 172.646l28.285-28.284M.646 144.354l28.285 28.284M.646 143.646l28.285-28.284M14.646 130.354l14.143 14.142M28.646 201.646l28.285-28.284M28.646 173.354l28.285 28.284M28.646 172.646l28.285-28.284M28.646 144.354l28.285 28.284M28.646 144.646l14.85-14.849M28.646 115.354l28.285 28.284M14.646 129.646l14.85-14.849M.646 116.354l28.285 28.284M28.646 144.646l28.285-28.284M28.646 115.354l14.85 14.849M.646 115.646l28.285-28.284M.646 87.354l28.285 28.284M28.646 115.646l28.285-28.284M28.646 87.354l28.285 28.284M.646 86.646l28.285-28.284M.646 58.354l28.285 28.284M.646 57.646l28.285-28.284M.646 29.354l28.285 28.284M.646 28.646L28.931.362M14.646 15.354L28.79 29.496M28.646 86.646l28.285-28.284M28.646 58.354l28.285 28.284M28.646 57.646l28.285-28.284M28.646 29.354l28.285 28.284M28.646 29.646l14.85-14.849M28.646.354l28.285 28.284"/></svg>